# xmcd
#
# Track frame offsets: 
#        150
#        10775
#        20901
#        34605
#        42584
#        54318
#        64553
#        77968
#        90462
#        100322
#        111056
#        122348
#        136901
#
# Disc length: 2018 seconds
#
# Revision: 0
# Processed by: cddbd v1.5.2PL0 Copyright (c) Steve Scherf et al.
# Submitted via: ExactAudioCopy v0.90b4
#
DISCID=9f07e00d
DTITLE=Dian and The Greenbriar Boys - Dian and The Greenbriar Boys
DYEAR=2006
DGENRE=Bluegrass
TTITLE0=Sally Let Your Bangs Hang Down
TTITLE1=Alabama Bound
TTITLE2=He Was A Friend
TTITLE3=Green Corn
TTITLE4=Cannon Ball Blues
TTITLE5=Giving Everything Away
TTITLE6=Tragic Romance
TTITLE7=Sweet Willie
TTITLE8=Brown's Ferry Blues
TTITLE9=Tramp On the Street
TTITLE10=Precious Lord
TTITLE11=Master's Banquet
TTITLE12=If I Were Free
EXTD=
EXTT0=
EXTT1=
EXTT2=
EXTT3=
EXTT4=
EXTT5=
EXTT6=
EXTT7=
EXTT8=
EXTT9=
EXTT10=
EXTT11=
EXTT12=
PLAYORDER=
